<svg fill="none" height="161" width="356" xmlns="http://www.w3.org/2000/svg"><rect fill="#ffba49" height="75.635" rx="37.79" width="75.635" x="280"/><g clip-rule="evenodd" fill="#fff" fill-rule="evenodd"><path d="M308.78 28.334h25.058a1.84 1.84 0 011.718 2.48l-5.501 14.668a1.837 1.837 0 01-1.718 1.188h-14.668a1.836 1.836 0 01-1.693-1.128l-8.696-20.875H299V21h4.278a3.66 3.66 0 013.386 2.255zm14.057 11.002h3.667v-3.667h-3.667v-3.667h-3.668v3.667h-3.667v3.667h3.667v3.667h3.668zm-8.252 14.668a2.75 2.75 0 100-5.501 2.75 2.75 0 000 5.501zm12.835 0a2.75 2.75 0 100-5.501 2.75 2.75 0 000 5.501zM7.51 130.831h18.793c.222.001.441.085.638.244.196.159.365.389.492.669.126.281.207.605.234.944.028.339.002.683-.075 1.004l-4.126 16.926c-.202.823-.715 1.371-1.288 1.371H11.176c-.554 0-1.056-.514-1.269-1.301L3.384 126.6H.174v-4.232h3.21c.542-.002 1.074.244 1.526.708.452.463.805 1.122 1.013 1.894zm10.542 12.695h2.75v-4.232h-2.75v-4.231h-2.75v4.231h-2.75v4.232h2.75v4.231h2.75zm-6.188 16.925c1.14 0 2.063-1.421 2.063-3.173 0-1.753-.924-3.173-2.063-3.173s-2.063 1.42-2.063 3.173c0 1.752.924 3.173 2.063 3.173zm9.626 0c1.14 0 2.063-1.421 2.063-3.173 0-1.753-.924-3.173-2.063-3.173s-2.063 1.42-2.063 3.173c0 1.752.924 3.173 2.063 3.173z"/></g></svg>