<svg width="1093" height="788" viewBox="0 0 1093 788" fill="none" xmlns="http://www.w3.org/2000/svg">
<path d="M591.628 544.878C586.204 490.13 586.885 447.491 594.858 414.78C629.614 272.191 740.053 182.126 876.073 196.185C1008.01 209.824 1087.22 327.55 1092.79 479.087C1098.73 640.366 976.065 787.453 826.343 787.453H341.697C222.996 787.453 131.243 733.212 71.4742 638.365C23.9856 563.004 0 465.948 0 374.102C0 182.524 146.045 0.715332 334.757 0.715332C460.938 0.715332 561.887 67.9775 633.437 196.968C629.594 201.13 613.869 213.123 591.628 246.862C576.8 269.354 566.86 288.062 561.809 302.984C507.451 180.931 434.121 125.594 334.757 125.594C207.722 125.594 108.217 249.466 108.217 374.102C108.217 440.955 125.856 512.328 158.997 564.921C198.459 627.542 257.718 662.574 341.697 662.574H826.343C914.597 662.574 987.991 574.565 984.674 484.383C981.229 390.735 912.726 326.928 860.759 322.31C775.249 313.472 709.419 368.573 697.055 452.423C693.21 478.499 693.21 497.149 700.584 544.12C632.283 544.657 595.964 544.909 591.628 544.878Z" fill="#FF8300" fill-opacity="0.3"/>
</svg>
