<svg fill="none" height="55" width="148" xmlns="http://www.w3.org/2000/svg"><rect fill="#70c217" height="54.536" rx="27.268" width="147.145" x=".062" y=".255"/><g fill="#fff"><path d="M53.681 31.592l3.116-10.338h3.153L55.163 35h-2.955l-4.767-13.746h3.144zM71.819 30.157V35h-2.832V21.254h5.362c1.032 0 1.938.19 2.719.567.786.378 1.39.916 1.812 1.614.422.693.633 1.482.633 2.37 0 1.347-.463 2.41-1.388 3.19-.919.775-2.193 1.162-3.823 1.162zm0-2.294h2.53c.749 0 1.318-.176 1.709-.529.396-.352.594-.856.594-1.51 0-.674-.198-1.218-.594-1.634-.397-.415-.945-.629-1.643-.642h-2.596zM100.379 35h-2.833l-5.513-9.044V35h-2.832V21.254h2.832l5.523 9.063v-9.063h2.823z"/></g></svg>