<svg width="33" height="36" viewBox="0 0 33 36" fill="none" xmlns="http://www.w3.org/2000/svg">
<path d="M15.8819 35.3609C16.4024 35.6388 17.0557 35.637 17.5762 35.3591C31.7601 27.7396 32.7674 12.8528 32.755 8.61992C32.7537 8.27971 32.6532 7.94728 32.4657 7.66335C32.2783 7.37941 32.0122 7.15628 31.6999 7.0213L17.4487 0.708281C17.2219 0.608309 16.9767 0.556825 16.7289 0.55713C16.481 0.557435 16.236 0.609522 16.0094 0.710051L1.85733 7.02308C1.54963 7.15813 1.28725 7.37879 1.10144 7.65876C0.915627 7.93874 0.814215 8.26623 0.809286 8.60222C0.749094 12.8138 1.59709 27.7325 15.8819 35.3609ZM10.9002 15.071L14.9596 19.1304L22.5597 11.5304L25.0629 14.0336L14.9596 24.1369L8.39695 17.5743L10.9002 15.071Z" fill="white"/>
</svg>
