<svg fill="none" height="553" width="251" xmlns="http://www.w3.org/2000/svg"><g fill="#29aaf3"><circle cx="4.483" cy="4.126" r="4.126"/><circle cx="64.991" cy="4.126" r="4.126"/><circle cx="125.5" cy="4.126" r="4.126"/><circle cx="186.007" cy="4.126" r="4.126"/><circle cx="246.516" cy="4.126" r="4.126"/><circle cx="4.483" cy="64.634" r="4.126"/><circle cx="64.991" cy="64.634" r="4.126"/><circle cx="125.5" cy="64.634" r="4.126"/><circle cx="186.007" cy="64.634" r="4.126"/><circle cx="246.516" cy="64.634" r="4.126"/><circle cx="4.483" cy="125.142" r="4.126"/><circle cx="64.991" cy="125.142" r="4.126"/><circle cx="125.5" cy="125.142" r="4.126"/><circle cx="186.007" cy="125.142" r="4.126"/><circle cx="246.516" cy="125.142" r="4.126"/><circle cx="4.483" cy="185.65" r="4.126"/><circle cx="64.991" cy="185.65" r="4.126"/><circle cx="125.5" cy="185.65" r="4.126"/><circle cx="186.007" cy="185.65" r="4.126"/><circle cx="246.516" cy="185.65" r="4.126"/><circle cx="4.483" cy="246.158" r="4.126"/><circle cx="64.991" cy="246.158" r="4.126"/><circle cx="125.5" cy="246.158" r="4.126"/><circle cx="186.007" cy="246.158" r="4.126"/><circle cx="246.516" cy="246.158" r="4.126"/><circle cx="4.483" cy="306.667" r="4.126"/><circle cx="64.991" cy="306.667" r="4.126"/><circle cx="125.5" cy="306.667" r="4.126"/><circle cx="186.007" cy="306.667" r="4.126"/><circle cx="246.516" cy="306.667" r="4.126"/><circle cx="4.483" cy="367.175" r="4.126"/><circle cx="64.991" cy="367.175" r="4.126"/><circle cx="125.5" cy="367.175" r="4.126"/><circle cx="186.007" cy="367.175" r="4.126"/><circle cx="246.516" cy="367.175" r="4.126"/><circle cx="4.483" cy="427.683" r="4.126"/><circle cx="64.991" cy="427.683" r="4.126"/><circle cx="125.5" cy="427.683" r="4.126"/><circle cx="186.007" cy="427.683" r="4.126"/><circle cx="246.516" cy="427.683" r="4.126"/><circle cx="4.483" cy="488.191" r="4.126"/><circle cx="64.991" cy="488.191" r="4.126"/><circle cx="125.5" cy="488.191" r="4.126"/><circle cx="186.007" cy="488.191" r="4.126"/><circle cx="246.516" cy="488.191" r="4.126"/><circle cx="4.483" cy="548.699" r="4.126"/><circle cx="64.991" cy="548.699" r="4.126"/><circle cx="125.5" cy="548.699" r="4.126"/><circle cx="186.007" cy="548.699" r="4.126"/><circle cx="246.516" cy="548.699" r="4.126"/></g></svg>