<svg width="251" height="553" viewBox="0 0 251 553" fill="none" xmlns="http://www.w3.org/2000/svg">
<circle cx="4.48347" cy="4.12556" r="4.12556" fill="#29AAF3"/>
<circle cx="64.9908" cy="4.12556" r="4.12556" fill="#29AAF3"/>
<circle cx="125.5" cy="4.12556" r="4.12556" fill="#29AAF3"/>
<circle cx="186.007" cy="4.12556" r="4.12556" fill="#29AAF3"/>
<circle cx="246.516" cy="4.12556" r="4.12556" fill="#29AAF3"/>
<circle cx="4.48298" cy="64.6339" r="4.12556" fill="#29AAF3"/>
<circle cx="64.9908" cy="64.6339" r="4.12556" fill="#29AAF3"/>
<circle cx="125.5" cy="64.6339" r="4.12556" fill="#29AAF3"/>
<circle cx="186.007" cy="64.6339" r="4.12556" fill="#29AAF3"/>
<circle cx="246.516" cy="64.6339" r="4.12556" fill="#29AAF3"/>
<circle cx="4.48298" cy="125.142" r="4.12556" fill="#29AAF3"/>
<circle cx="64.9908" cy="125.142" r="4.12556" fill="#29AAF3"/>
<circle cx="125.5" cy="125.142" r="4.12556" fill="#29AAF3"/>
<circle cx="186.007" cy="125.142" r="4.12556" fill="#29AAF3"/>
<circle cx="246.516" cy="125.142" r="4.12556" fill="#29AAF3"/>
<circle cx="4.48298" cy="185.65" r="4.12556" fill="#29AAF3"/>
<circle cx="64.9908" cy="185.65" r="4.12556" fill="#29AAF3"/>
<circle cx="125.5" cy="185.65" r="4.12556" fill="#29AAF3"/>
<circle cx="186.007" cy="185.65" r="4.12556" fill="#29AAF3"/>
<circle cx="246.516" cy="185.65" r="4.12556" fill="#29AAF3"/>
<circle cx="4.48298" cy="246.158" r="4.12556" fill="#29AAF3"/>
<circle cx="64.9908" cy="246.158" r="4.12556" fill="#29AAF3"/>
<circle cx="125.5" cy="246.158" r="4.12556" fill="#29AAF3"/>
<circle cx="186.007" cy="246.158" r="4.12556" fill="#29AAF3"/>
<circle cx="246.516" cy="246.158" r="4.12556" fill="#29AAF3"/>
<circle cx="4.48298" cy="306.667" r="4.12556" fill="#29AAF3"/>
<circle cx="64.9908" cy="306.667" r="4.12556" fill="#29AAF3"/>
<circle cx="125.5" cy="306.667" r="4.12556" fill="#29AAF3"/>
<circle cx="186.007" cy="306.667" r="4.12556" fill="#29AAF3"/>
<circle cx="246.516" cy="306.667" r="4.12556" fill="#29AAF3"/>
<circle cx="4.48298" cy="367.175" r="4.12556" fill="#29AAF3"/>
<circle cx="64.9908" cy="367.175" r="4.12556" fill="#29AAF3"/>
<circle cx="125.5" cy="367.175" r="4.12556" fill="#29AAF3"/>
<circle cx="186.007" cy="367.175" r="4.12556" fill="#29AAF3"/>
<circle cx="246.516" cy="367.175" r="4.12556" fill="#29AAF3"/>
<circle cx="4.48298" cy="427.683" r="4.12556" fill="#29AAF3"/>
<circle cx="64.9908" cy="427.683" r="4.12556" fill="#29AAF3"/>
<circle cx="125.5" cy="427.683" r="4.12556" fill="#29AAF3"/>
<circle cx="186.007" cy="427.683" r="4.12556" fill="#29AAF3"/>
<circle cx="246.516" cy="427.683" r="4.12556" fill="#29AAF3"/>
<circle cx="4.48298" cy="488.191" r="4.12556" fill="#29AAF3"/>
<circle cx="64.9908" cy="488.191" r="4.12556" fill="#29AAF3"/>
<circle cx="125.5" cy="488.191" r="4.12556" fill="#29AAF3"/>
<circle cx="186.007" cy="488.191" r="4.12556" fill="#29AAF3"/>
<circle cx="246.516" cy="488.191" r="4.12556" fill="#29AAF3"/>
<circle cx="4.48298" cy="548.699" r="4.12556" fill="#29AAF3"/>
<circle cx="64.9908" cy="548.699" r="4.12556" fill="#29AAF3"/>
<circle cx="125.5" cy="548.699" r="4.12556" fill="#29AAF3"/>
<circle cx="186.007" cy="548.699" r="4.12556" fill="#29AAF3"/>
<circle cx="246.516" cy="548.699" r="4.12556" fill="#29AAF3"/>
</svg>
