<svg width="241" height="174" fill="none" xmlns="http://www.w3.org/2000/svg"><path d="M2.2 162.5a195.2 195.2 0 0024-29.8 45.8 45.8 0 008.7-22.4c0-3.4-1.2-6.6-3.7-9.5-2-2.9-5-6-9.4-9.4a73.4 73.4 0 01-16-16.7A41.2 41.2 0 010 51.5c0-15 4.6-27 13.8-36.2A46 46 0 0148.7.8c15 0 27 4.8 36.3 14.5a47.7 47.7 0 0114.5 36.2c0 18.9-8 39.7-24 62.4a230.3 230.3 0 01-62.4 59.5l-11-11zm140.9 0a195.2 195.2 0 0024-29.8 45.8 45.8 0 008.7-22.4c0-3.4-1.3-6.6-3.7-9.5-2-2.9-5-6-9.4-9.4a73.4 73.4 0 01-16-16.7 41.2 41.2 0 01-5.8-23.2c0-15 4.6-27 13.8-36.2A46 46 0 01189.6.8c15 0 27 4.8 36.3 14.5a47.7 47.7 0 0114.5 36.2c0 18.9-8 39.7-24 62.4a230.3 230.3 0 01-62.4 59.5l-11-11z" fill="#EDF0FD"/></svg>