<svg fill="none" height="214" width="215" xmlns="http://www.w3.org/2000/svg"><g fill="#ef4358"><circle cx="210.636" cy="3.524" r="3.524" transform="rotate(90 210.636 3.524)"/><circle cx="210.636" cy="55.203" r="3.524" transform="rotate(90 210.636 55.203)"/><circle cx="210.636" cy="106.882" r="3.524" transform="rotate(90 210.636 106.882)"/><circle cx="210.636" cy="158.561" r="3.524" transform="rotate(90 210.636 158.561)"/><circle cx="210.636" cy="210.24" r="3.524" transform="rotate(90 210.636 210.24)"/><circle cx="158.957" cy="3.524" r="3.524" transform="rotate(90 158.957 3.524)"/><circle cx="158.957" cy="55.203" r="3.524" transform="rotate(90 158.957 55.203)"/><circle cx="158.957" cy="106.882" r="3.524" transform="rotate(90 158.957 106.882)"/><circle cx="158.957" cy="158.561" r="3.524" transform="rotate(90 158.957 158.561)"/><circle cx="158.957" cy="210.24" r="3.524" transform="rotate(90 158.957 210.24)"/><circle cx="107.278" cy="3.524" r="3.524" transform="rotate(90 107.278 3.524)"/><circle cx="107.278" cy="55.203" r="3.524" transform="rotate(90 107.278 55.203)"/><circle cx="107.278" cy="106.882" r="3.524" transform="rotate(90 107.278 106.882)"/><circle cx="107.278" cy="158.561" r="3.524" transform="rotate(90 107.278 158.561)"/><circle cx="107.278" cy="210.24" r="3.524" transform="rotate(90 107.278 210.24)"/><circle cx="55.599" cy="3.524" r="3.524" transform="rotate(90 55.599 3.524)"/><circle cx="55.599" cy="55.203" r="3.524" transform="rotate(90 55.599 55.203)"/><circle cx="55.599" cy="106.882" r="3.524" transform="rotate(90 55.599 106.882)"/><circle cx="55.599" cy="158.561" r="3.524" transform="rotate(90 55.599 158.561)"/><circle cx="55.599" cy="210.24" r="3.524" transform="rotate(90 55.599 210.24)"/><circle cx="3.919" cy="3.524" r="3.524" transform="rotate(90 3.92 3.524)"/><circle cx="3.919" cy="55.203" r="3.524" transform="rotate(90 3.92 55.203)"/><circle cx="3.919" cy="106.882" r="3.524" transform="rotate(90 3.92 106.882)"/><circle cx="3.919" cy="158.561" r="3.524" transform="rotate(90 3.92 158.561)"/><circle cx="3.919" cy="210.24" r="3.524" transform="rotate(90 3.92 210.24)"/></g></svg>