<svg fill="none" height="163" width="266" xmlns="http://www.w3.org/2000/svg"><g fill="#70c217"><circle cx="261.92" cy="3.524" r="3.524" transform="rotate(90 261.92 3.524)"/><circle cx="261.92" cy="55.203" r="3.524" transform="rotate(90 261.92 55.203)"/><circle cx="261.92" cy="106.882" r="3.524" transform="rotate(90 261.92 106.882)"/><circle cx="261.92" cy="158.561" r="3.524" transform="rotate(90 261.92 158.561)"/><circle cx="210.24" cy="3.524" r="3.524" transform="rotate(90 210.24 3.524)"/><circle cx="210.24" cy="55.203" r="3.524" transform="rotate(90 210.24 55.203)"/><circle cx="210.24" cy="106.882" r="3.524" transform="rotate(90 210.24 106.882)"/><circle cx="210.24" cy="158.561" r="3.524" transform="rotate(90 210.24 158.561)"/><circle cx="158.561" cy="3.524" r="3.524" transform="rotate(90 158.561 3.524)"/><circle cx="158.561" cy="55.203" r="3.524" transform="rotate(90 158.561 55.203)"/><circle cx="158.561" cy="106.882" r="3.524" transform="rotate(90 158.561 106.882)"/><circle cx="158.561" cy="158.561" r="3.524" transform="rotate(90 158.561 158.561)"/><circle cx="106.882" cy="3.524" r="3.524" transform="rotate(90 106.882 3.524)"/><circle cx="106.882" cy="55.203" r="3.524" transform="rotate(90 106.882 55.203)"/><circle cx="106.882" cy="106.882" r="3.524" transform="rotate(90 106.882 106.882)"/><circle cx="106.882" cy="158.561" r="3.524" transform="rotate(90 106.882 158.561)"/><circle cx="55.203" cy="3.524" r="3.524" transform="rotate(90 55.203 3.524)"/><circle cx="55.203" cy="55.203" r="3.524" transform="rotate(90 55.203 55.203)"/><circle cx="55.203" cy="106.882" r="3.524" transform="rotate(90 55.203 106.882)"/><circle cx="55.203" cy="158.561" r="3.524" transform="rotate(90 55.203 158.561)"/><circle cx="3.524" cy="3.524" r="3.524" transform="rotate(90 3.524 3.524)"/><circle cx="3.524" cy="55.203" r="3.524" transform="rotate(90 3.524 55.203)"/><circle cx="3.524" cy="106.882" r="3.524" transform="rotate(90 3.524 106.882)"/><circle cx="3.524" cy="158.561" r="3.524" transform="rotate(90 3.524 158.561)"/></g></svg>