<svg width="473" height="214" fill="none" xmlns="http://www.w3.org/2000/svg"><circle cx="468.6" cy="3.5" r="3.5" transform="rotate(90 468.6 3.5)" fill="#EF4358"/><circle cx="468.6" cy="55.2" r="3.5" transform="rotate(90 468.6 55.2)" fill="#EF4358"/><circle cx="468.6" cy="106.9" r="3.5" transform="rotate(90 468.6 106.9)" fill="#EF4358"/><circle cx="468.6" cy="158.6" r="3.5" transform="rotate(90 468.6 158.6)" fill="#EF4358"/><circle cx="468.6" cy="210.2" r="3.5" transform="rotate(90 468.6 210.2)" fill="#EF4358"/><circle cx="417" cy="3.5" r="3.5" transform="rotate(90 417 3.5)" fill="#EF4358"/><circle cx="417" cy="55.2" r="3.5" transform="rotate(90 417 55.2)" fill="#EF4358"/><circle cx="417" cy="106.9" r="3.5" transform="rotate(90 417 106.9)" fill="#EF4358"/><circle cx="417" cy="158.6" r="3.5" transform="rotate(90 417 158.6)" fill="#EF4358"/><circle cx="417" cy="210.2" r="3.5" transform="rotate(90 417 210.2)" fill="#EF4358"/><circle cx="365.3" cy="3.5" r="3.5" transform="rotate(90 365.3 3.5)" fill="#EF4358"/><circle cx="365.3" cy="55.2" r="3.5" transform="rotate(90 365.3 55.2)" fill="#EF4358"/><circle cx="365.3" cy="106.9" r="3.5" transform="rotate(90 365.3 106.9)" fill="#EF4358"/><circle cx="365.3" cy="158.6" r="3.5" transform="rotate(90 365.3 158.6)" fill="#EF4358"/><circle cx="365.3" cy="210.2" r="3.5" transform="rotate(90 365.3 210.2)" fill="#EF4358"/><circle cx="313.6" cy="3.5" r="3.5" transform="rotate(90 313.6 3.5)" fill="#EF4358"/><circle cx="313.6" cy="55.2" r="3.5" transform="rotate(90 313.6 55.2)" fill="#EF4358"/><circle cx="313.6" cy="106.9" r="3.5" transform="rotate(90 313.6 106.9)" fill="#EF4358"/><circle cx="313.6" cy="158.6" r="3.5" transform="rotate(90 313.6 158.6)" fill="#EF4358"/><circle cx="313.6" cy="210.2" r="3.5" transform="rotate(90 313.6 210.2)" fill="#EF4358"/><circle cx="261.9" cy="3.5" r="3.5" transform="rotate(90 262 3.5)" fill="#EF4358"/><circle cx="261.9" cy="55.2" r="3.5" transform="rotate(90 262 55.2)" fill="#EF4358"/><circle cx="261.9" cy="106.9" r="3.5" transform="rotate(90 262 106.9)" fill="#EF4358"/><circle cx="261.9" cy="158.6" r="3.5" transform="rotate(90 262 158.6)" fill="#EF4358"/><circle cx="261.9" cy="210.2" r="3.5" transform="rotate(90 262 210.2)" fill="#EF4358"/><circle cx="210.2" cy="3.5" r="3.5" transform="rotate(90 210.2 3.5)" fill="#EF4358"/><circle cx="210.2" cy="55.2" r="3.5" transform="rotate(90 210.2 55.2)" fill="#EF4358"/><circle cx="210.2" cy="106.9" r="3.5" transform="rotate(90 210.2 106.9)" fill="#EF4358"/><circle cx="210.2" cy="158.6" r="3.5" transform="rotate(90 210.2 158.6)" fill="#EF4358"/><circle cx="210.2" cy="210.2" r="3.5" transform="rotate(90 210.2 210.2)" fill="#EF4358"/><circle cx="158.6" cy="3.5" r="3.5" transform="rotate(90 158.6 3.5)" fill="#EF4358"/><circle cx="158.6" cy="55.2" r="3.5" transform="rotate(90 158.6 55.2)" fill="#EF4358"/><circle cx="158.6" cy="106.9" r="3.5" transform="rotate(90 158.6 106.9)" fill="#EF4358"/><circle cx="158.6" cy="158.6" r="3.5" transform="rotate(90 158.6 158.6)" fill="#EF4358"/><circle cx="158.6" cy="210.2" r="3.5" transform="rotate(90 158.6 210.2)" fill="#EF4358"/><circle cx="106.9" cy="3.5" r="3.5" transform="rotate(90 106.9 3.5)" fill="#EF4358"/><circle cx="106.9" cy="55.2" r="3.5" transform="rotate(90 106.9 55.2)" fill="#EF4358"/><circle cx="106.9" cy="106.9" r="3.5" transform="rotate(90 106.9 106.9)" fill="#EF4358"/><circle cx="106.9" cy="158.6" r="3.5" transform="rotate(90 106.9 158.6)" fill="#EF4358"/><circle cx="106.9" cy="210.2" r="3.5" transform="rotate(90 106.9 210.2)" fill="#EF4358"/><circle cx="55.2" cy="3.5" r="3.5" transform="rotate(90 55.2 3.5)" fill="#EF4358"/><circle cx="55.2" cy="55.2" r="3.5" transform="rotate(90 55.2 55.2)" fill="#EF4358"/><circle cx="55.2" cy="106.9" r="3.5" transform="rotate(90 55.2 106.9)" fill="#EF4358"/><circle cx="55.2" cy="158.6" r="3.5" transform="rotate(90 55.2 158.6)" fill="#EF4358"/><circle cx="55.2" cy="210.2" r="3.5" transform="rotate(90 55.2 210.2)" fill="#EF4358"/><circle cx="3.5" cy="3.5" r="3.5" transform="rotate(90 3.5 3.5)" fill="#EF4358"/><circle cx="3.5" cy="55.2" r="3.5" transform="rotate(90 3.5 55.2)" fill="#EF4358"/><circle cx="3.5" cy="106.9" r="3.5" transform="rotate(90 3.5 106.9)" fill="#EF4358"/><circle cx="3.5" cy="158.6" r="3.5" transform="rotate(90 3.5 158.6)" fill="#EF4358"/><circle cx="3.5" cy="210.2" r="3.5" transform="rotate(90 3.5 210.2)" fill="#EF4358"/></svg>